{"url":"https://api.github.com/repos/k4yt3x/video2x/issues/86","repository_url":"https://api.github.com/repos/k4yt3x/video2x","labels_url":"https://api.github.com/repos/k4yt3x/video2x/issues/86/labels{/name}","comments_url":"https://api.github.com/repos/k4yt3x/video2x/issues/86/comments","events_url":"https://api.github.com/repos/k4yt3x/video2x/issues/86/events","html_url":"https://github.com/k4yt3x/video2x/issues/86","id":438259524,"node_id":"MDU6SXNzdWU0MzgyNTk1MjQ=","number":86,"title":"An instance of failure - No such file or directory?","user":{"login":"nostalgicc","id":38463032,"node_id":"MDQ6VXNlcjM4NDYzMDMy","avatar_url":"https://avatars.githubusercontent.com/u/38463032?v=4","gravatar_id":"","url":"https://api.github.com/users/nostalgicc","html_url":"https://github.com/nostalgicc","followers_url":"https://api.github.com/users/nostalgicc/followers","following_url":"https://api.github.com/users/nostalgicc/following{/other_user}","gists_url":"https://api.github.com/users/nostalgicc/gists{/gist_id}","starred_url":"https://api.github.com/users/nostalgicc/starred{/owner}{/repo}","subscriptions_url":"https://api.github.com/users/nostalgicc/subscriptions","organizations_url":"https://api.github.com/users/nostalgicc/orgs","repos_url":"https://api.github.com/users/nostalgicc/repos","events_url":"https://api.github.com/users/nostalgicc/events{/privacy}","received_events_url":"https://api.github.com/users/nostalgicc/received_events","type":"User","site_admin":false},"labels":[{"id":847238628,"node_id":"MDU6TGFiZWw4NDcyMzg2Mjg=","url":"https://api.github.com/repos/k4yt3x/video2x/labels/type:Bug","name":"type:Bug","color":"d80000","default":false,"description":"Something isn't working"}],"state":"closed","locked":false,"assignee":{"login":"k4yt3x","id":21986859,"node_id":"MDQ6VXNlcjIxOTg2ODU5","avatar_url":"https://avatars.githubusercontent.com/u/21986859?v=4","gravatar_id":"","url":"https://api.github.com/users/k4yt3x","html_url":"https://github.com/k4yt3x","followers_url":"https://api.github.com/users/k4yt3x/followers","following_url":"https://api.github.com/users/k4yt3x/following{/other_user}","gists_url":"https://api.github.com/users/k4yt3x/gists{/gist_id}","starred_url":"https://api.github.com/users/k4yt3x/starred{/owner}{/repo}","subscriptions_url":"https://api.github.com/users/k4yt3x/subscriptions","organizations_url":"https://api.github.com/users/k4yt3x/orgs","repos_url":"https://api.github.com/users/k4yt3x/repos","events_url":"https://api.github.com/users/k4yt3x/events{/privacy}","received_events_url":"https://api.github.com/users/k4yt3x/received_events","type":"User","site_admin":false},"assignees":[{"login":"k4yt3x","id":21986859,"node_id":"MDQ6VXNlcjIxOTg2ODU5","avatar_url":"https://avatars.githubusercontent.com/u/21986859?v=4","gravatar_id":"","url":"https://api.github.com/users/k4yt3x","html_url":"https://github.com/k4yt3x","followers_url":"https://api.github.com/users/k4yt3x/followers","following_url":"https://api.github.com/users/k4yt3x/following{/other_user}","gists_url":"https://api.github.com/users/k4yt3x/gists{/gist_id}","starred_url":"https://api.github.com/users/k4yt3x/starred{/owner}{/repo}","subscriptions_url":"https://api.github.com/users/k4yt3x/subscriptions","organizations_url":"https://api.github.com/users/k4yt3x/orgs","repos_url":"https://api.github.com/users/k4yt3x/repos","events_url":"https://api.github.com/users/k4yt3x/events{/privacy}","received_events_url":"https://api.github.com/users/k4yt3x/received_events","type":"User","site_admin":false}],"milestone":null,"comments":13,"created_at":"2019-04-29T11:00:32Z","updated_at":"2019-05-08T00:45:26Z","closed_at":"2019-05-08T00:45:25Z","author_association":"NONE","active_lock_reason":null,"body":"```\r\nC:\\Users\\Administrator>cd C:\\Program Files\\video2x-master\\bin\r\n\r\nC:\\Program Files\\video2x-master\\bin>python video2x.py -m gpu -r 2 -i E:\\[POPGO][FREEWIND][Macross_Do_you_remember_love][Full_HD-BDRIP][AVC_DTS].mpeg -o F:\\temp\\[PANTSUSENSEI][Macross_Do_you_remember_love][BDRIP][4K][DENOISE][AVC_DTS].mp4\r\n__      __  _       _                  ___   __   __\r\n\\ \\    / / (_)     | |                |__ \\  \\ \\ / /\r\n \\ \\  / /   _    __| |   ___    ___      ) |  \\ V /\r\n  \\ \\/ /   | |  / _` |  / _ \\  / _ \\    / /    > <\r\n   \\  /    | | | (_| | |  __/ | (_) |  / /_   / . \\\r\n    \\/     |_|  \\__,_|  \\___|  \\___/  |____| /_/ \\_\\\r\n\r\n               Video2X Video Enlarger\r\n\r\n                   Version 2.7.1\r\n\r\n[!] WARNING: Each waifu2x-caffe thread will require up to 2.5 GB of system memory\r\n[!] WARNING: You demanded 5 threads to be created, but you only have 12.0365 GB system memory available\r\n[!] WARNING: 12.5 GB of system memory is recommended for 5 threads\r\n[!] WARNING: With your current amount of system memory available, 4 threads is recommended\r\n[?] USER: Change to the recommended value? [Y/n]: Y\r\n[!] WARNING: Each waifu2x-caffe thread will require up to 2.5 GB of system memory\r\n[!] WARNING: You demanded 4 threads to be created, but you only have 7.377 GB GPU memory available\r\n[!] WARNING: 14.0 GB of GPU memory is recommended for 4 threads\r\n[!] WARNING: With your current amount of GPU memory available, 2 threads is recommended\r\n[?] USER: Change to the recommended value? [Y/n]: Y\r\n[+] INFO: Upscaling single video file: E:\\[POPGO][FREEWIND][Macross_Do_you_remember_love][Full_HD-BDRIP][AVC_DTS].mpeg\r\n2019-04-29 09:41:06.872894 [+] INFO: Extracted frames are being saved to: F:\\video2xcache\\tmpc61ljt0g\r\n2019-04-29 09:41:06.877885 [+] INFO: Upscaled frames are being saved to: F:\\video2xcache\\tmp78goorh6\r\n2019-04-29 09:41:06.877885 [+] INFO: Executing: ['C:\\\\Users\\\\Administrator\\\\AppData\\\\Local\\\\video2x\\\\ffmpeg-latest-win64-static\\\\bin\\\\ffmpeg.exe', '-i', 'E:\\\\[POPGO][FREEWIND][Macross_Do_you_remember_love][Full_HD-BDRIP][AVC_DTS].mpeg', 'F:\\\\video2xcache\\\\tmpc61ljt0g\\\\extracted_%0d.png', '-hwaccel', 'auto', '-y']\r\nffmpeg version N-93686-g8019395889 Copyright (c) 2000-2019 the FFmpeg developers\r\n  built with gcc 8.3.1 (GCC) 20190414\r\n  configuration: --enable-gpl --enable-version3 --enable-sdl2 --enable-fontconfig --enable-gnutls --enable-iconv --enable-libass --enable-libdav1d --enable-libbluray --enable-libfreetype --enable-libmp3lame --enable-libopencore-amrnb --enable-libopencore-amrwb --enable-libopenjpeg --enable-libopus --enable-libshine --enable-libsnappy --enable-libsoxr --enable-libtheora --enable-libtwolame --enable-libvpx --enable-libwavpack --enable-libwebp --enable-libx264 --enable-libx265 --enable-libxml2 --enable-libzimg --enable-lzma --enable-zlib --enable-gmp --enable-libvidstab --enable-libvorbis --enable-libvo-amrwbenc --enable-libmysofa --enable-libspeex --enable-libxvid --enable-libaom --enable-libmfx --enable-amf --enable-ffnvcodec --enable-cuvid --enable-d3d11va --enable-nvenc --enable-nvdec --enable-dxva2 --enable-avisynth --enable-libopenmpt\r\n  libavutil      56. 26.100 / 56. 26.100\r\n  libavcodec     58. 52.100 / 58. 52.100\r\n  libavformat    58. 27.103 / 58. 27.103\r\n  libavdevice    58.  7.100 / 58.  7.100\r\n  libavfilter     7. 50.100 /  7. 50.100\r\n  libswscale      5.  4.100 /  5.  4.100\r\n  libswresample   3.  4.100 /  3.  4.100\r\n  libpostproc    55.  4.100 / 55.  4.100\r\nTrailing options were found on the commandline.\r\nInput #0, mpeg, from 'E:\\[POPGO][FREEWIND][Macross_Do_you_remember_love][Full_HD-BDRIP][AVC_DTS].mpeg':\r\n  Duration: 00:06:38.89, start: 0.460233, bitrate: 25334 kb/s\r\n    Stream #0:0[0x1e0]: Video: mpeg2video (High), yuv420p(tv, unknown/bt709/unknown, progressive), 1920x1080 [SAR 1:1 DAR 16:9], 24858 kb/s, 23.98 fps, 23.98 tbr, 90k tbn, 47.95 tbc\r\n    Stream #0:1[0x1c0]: Audio: mp2, 44100 Hz, stereo, fltp, 384 kb/s\r\nStream mapping:\r\n  Stream #0:0 -> #0:0 (mpeg2video (native) -> png (native))\r\nPress [q] to stop, [?] for help\r\nOutput #0, image2, to 'F:\\video2xcache\\tmpc61ljt0g\\extracted_%0d.png':\r\n  Metadata:\r\n    encoder         : Lavf58.27.103\r\n    Stream #0:0: Video: png, rgb24, 1920x1080 [SAR 1:1 DAR 16:9], q=2-31, 200 kb/s, 23.98 fps, 23.98 tbn, 23.98 tbc\r\n    Metadata:\r\n      encoder         : Lavc58.52.100 png\r\nframe= 9562 fps= 24 q=-0.0 Lsize=N/A time=00:06:38.81 bitrate=N/A speed=1.01x\r\nvideo:21710872kB audio:0kB subtitle:0kB other streams:0kB global headers:0kB muxing overhead: unknown\r\n[+] INFO: Reading video information\r\n2019-04-29 09:47:44.491044 [+] INFO: Executing: C:\\Users\\Administrator\\AppData\\Local\\video2x\\ffmpeg-latest-win64-static\\bin\\ffprobe.exe -v quiet -print_format json -show_format -show_streams -i E:\\[POPGO][FREEWIND][Macross_Do_you_remember_love][Full_HD-BDRIP][AVC_DTS].mpeg\r\n[+] INFO: Framerate: 23.976023976023978\r\n[+] INFO: Starting to upscale extracted images\r\n2019-04-29 09:47:59.751363 [+] INFO: Starting upscaled image cleaner\r\n2019-04-29 09:47:59.752250 [+] INFO: [upscaler] Thread 0 started\r\n2019-04-29 09:47:59.753248 [+] INFO: Executing: ['C:\\\\Users\\\\Administrator\\\\AppData\\\\Local\\\\video2x\\\\waifu2x-caffe\\\\waifu2x-caffe-cui.exe', '--output_extention', 'png', '--mode', 'noise_scale', '--scale_ratio', '2.0', '--noise_level', '3', '--process', 'gpu', '--crop_size', '128', '--output_quality', '-1', '--output_depth', '8', '--batch_size', '1', '--gpu', '0', '--tta', '0', '--input_path', 'F:\\\\video2xcache\\\\tmpc61ljt0g\\\\1', '--output_path', 'F:\\\\video2xcache\\\\tmp78goorh6']2019-04-29 09:47:59.753248 [+] INFO: [upscaler] Thread 1 started\r\n\r\n2019-04-29 09:47:59.754245 [+] INFO: Executing: ['C:\\\\Users\\\\Administrator\\\\AppData\\\\Local\\\\video2x\\\\waifu2x-caffe\\\\waifu2x-caffe-cui.exe', '--output_extention', 'png', '--mode', 'noise_scale', '--scale_ratio', '2.0', '--noise_level', '3', '--process', 'gpu', '--crop_size', '128', '--output_quality', '-1', '--output_depth', '8', '--batch_size', '1', '--gpu', '0', '--tta', '0', '--input_path', 'F:\\\\video2xcache\\\\tmpc61ljt0g\\\\1', '--output_path', 'F:\\\\video2xcache\\\\tmp78goorh6']\r\nUpscaling Progress:  50%|##########################9                           | 4780/9562 [9:06:09<8:47:41,  6.62s/it] 変変換に換成功しにました成\r\n功しました\r\n2019-04-29 18:54:16.414324 [+] INFO: [upscaler] Thread 0 exiting\r\n2019-04-29 18:54:16.436266 [+] INFO: [upscaler] Thread 1 exiting\r\n2019-04-29 18:54:16.436266 [+] INFO: Killing upscaled image cleaner\r\nUpscaling Progress:  50%|###########################                           | 4781/9562 [9:06:16<8:57:11,  6.74s/it][+] INFO: Upscaling completed\r\n[+] INFO: Converting extracted frames into video\r\n2019-04-29 18:54:17.234244 [+] INFO: Executing: ['C:\\\\Users\\\\Administrator\\\\AppData\\\\Local\\\\video2x\\\\ffmpeg-latest-win64-static\\\\bin\\\\ffmpeg.exe', '-r', '23.976023976023978', '-s', '3840x2160', '-i', 'F:\\\\video2xcache\\\\tmp78goorh6\\\\extracted_%d.png', 'F:\\\\video2xcache\\\\tmp78goorh6\\\\no_audio.mp4', '-f', 'image2', '-vcodec', 'libx264', '-crf', '17', '-pix_fmt', 'yuv420p', '-hwaccel', 'auto', '-y']\r\n\r\nffmpeg version N-93686-g8019395889 Copyright (c) 2000-2019 the FFmpeg developers\r\n  built with gcc 8.3.1 (GCC) 20190414\r\n  configuration: --enable-gpl --enable-version3 --enable-sdl2 --enable-fontconfig --enable-gnutls --enable-iconv --enable-libass --enable-libdav1d --enable-libbluray --enable-libfreetype --enable-libmp3lame --enable-libopencore-amrnb --enable-libopencore-amrwb --enable-libopenjpeg --enable-libopus --enable-libshine --enable-libsnappy --enable-libsoxr --enable-libtheora --enable-libtwolame --enable-libvpx --enable-libwavpack --enable-libwebp --enable-libx264 --enable-libx265 --enable-libxml2 --enable-libzimg --enable-lzma --enable-zlib --enable-gmp --enable-libvidstab --enable-libvorbis --enable-libvo-amrwbenc --enable-libmysofa --enable-libspeex --enable-libxvid --enable-libaom --enable-libmfx --enable-amf --enable-ffnvcodec --enable-cuvid --enable-d3d11va --enable-nvenc --enable-nvdec --enable-dxva2 --enable-avisynth --enable-libopenmpt\r\n  libavutil      56. 26.100 / 56. 26.100\r\n  libavcodec     58. 52.100 / 58. 52.100\r\n  libavformat    58. 27.103 / 58. 27.103\r\n  libavdevice    58.  7.100 / 58.  7.100\r\n  libavfilter     7. 50.100 /  7. 50.100\r\n  libswscale      5.  4.100 /  5.  4.100\r\n  libswresample   3.  4.100 /  3.  4.100\r\n  libpostproc    55.  4.100 / 55.  4.100\r\nTrailing options were found on the commandline.\r\nInput #0, image2, from 'F:\\video2xcache\\tmp78goorh6\\extracted_%d.png':\r\n  Duration: 00:00:00.04, start: 0.000000, bitrate: N/A\r\n    Stream #0:0: Video: png, rgb24(pc), 3840x2160, 25 tbr, 25 tbn, 25 tbc\r\nStream mapping:\r\n  Stream #0:0 -> #0:0 (png (native) -> h264 (libx264))\r\nPress [q] to stop, [?] for help\r\n[libx264 @ 000002a3fb59f380] using cpu capabilities: MMX2 SSE2Fast SSSE3 SSE4.2 AVX FMA3 BMI2 AVX2\r\n[libx264 @ 000002a3fb59f380] profile High 4:4:4 Predictive, level 5.1, 4:4:4, 8-bit\r\n[libx264 @ 000002a3fb59f380] 264 - core 157 r2970 5493be8 - H.264/MPEG-4 AVC codec - Copyleft 2003-2019 - http://www.videolan.org/x264.html - options: cabac=1 ref=3 deblock=1:0:0 analyse=0x3:0x113 me=hex subme=7 psy=1 psy_rd=1.00:0.00 mixed_ref=1 me_range=16 chroma_me=1 trellis=1 8x8dct=1 cqm=0 deadzone=21,11 fast_pskip=1 chroma_qp_offset=4 threads=12 lookahead_threads=2 sliced_threads=0 nr=0 decimate=1 interlaced=0 bluray_compat=0 constrained_intra=0 bframes=3 b_pyramid=2 b_adapt=1 b_bias=0 direct=1 weightb=1 open_gop=0 weightp=2 keyint=250 keyint_min=23 scenecut=40 intra_refresh=0 rc_lookahead=40 rc=crf mbtree=1 crf=23.0 qcomp=0.60 qpmin=0 qpmax=69 qpstep=4 ip_ratio=1.40 aq=1:1.00\r\nOutput #0, mp4, to 'F:\\video2xcache\\tmp78goorh6\\no_audio.mp4':\r\n  Metadata:\r\n    encoder         : Lavf58.27.103\r\n    Stream #0:0: Video: h264 (libx264) (avc1 / 0x31637661), yuv444p, 3840x2160, q=-1--1, 23.98 fps, 24k tbn, 23.98 tbc\r\n    Metadata:\r\n      encoder         : Lavc58.52.100 libx264\r\n    Side data:\r\n      cpb: bitrate max/min/avg: 0/0/0 buffer size: 0 vbv_delay: -1\r\nframe=    1 fps=0.0 q=28.0 Lsize=      93kB time=00:00:00.00 bitrate=18052952.4kbits/s speed=0.000109x\r\nvideo:92kB audio:0kB subtitle:0kB other streams:0kB global headers:0kB muxing overhead: 0.850190%\r\n[libx264 @ 000002a3fb59f380] frame I:1     Avg QP:22.77  size: 93290\r\n[libx264 @ 000002a3fb59f380] mb I  I16..4: 47.8% 50.8%  1.4%\r\n[libx264 @ 000002a3fb59f380] 8x8 transform intra:50.8%\r\n[libx264 @ 000002a3fb59f380] coded y,u,v intra: 15.7% 7.3% 5.8%\r\n[libx264 @ 000002a3fb59f380] i16 v,h,dc,p: 22% 27%  6% 45%\r\n[libx264 @ 000002a3fb59f380] i8 v,h,dc,ddl,ddr,vr,hd,vl,hu: 30% 22% 25%  5%  4%  4%  4%  3%  4%\r\n[libx264 @ 000002a3fb59f380] i4 v,h,dc,ddl,ddr,vr,hd,vl,hu: 23% 19% 14%  4% 14% 11%  9%  4%  3%\r\n[libx264 @ 000002a3fb59f380] kb/s:17893.79\r\n[+] INFO: Conversion completed\r\n[+] INFO: Migrating audio tracks and subtitles to upscaled video\r\n2019-04-29 18:54:21.721139 [+] INFO: Executing: ['C:\\\\Users\\\\Administrator\\\\AppData\\\\Local\\\\video2x\\\\ffmpeg-latest-win64-static\\\\bin\\\\ffmpeg.exe', '-i', 'F:\\\\video2xcache\\\\tmp78goorh6\\\\no_audio.mp4', '-i', 'E:\\\\[POPGO][FREEWIND][Macross_Do_you_remember_love][Full_HD-BDRIP][AVC_DTS].mpeg', 'F:\\\\temp\\\\[PANTSUSENSEI][Macross_Do_you_remember_love][BDRIP][4K][DENOISE][AVC_DTS].mp4', '-map', '-1:v?', '-c', 'copy', '-hwaccel', 'auto', '-y']\r\nffmpeg version N-93686-g8019395889 Copyright (c) 2000-2019 the FFmpeg developers\r\n  built with gcc 8.3.1 (GCC) 20190414\r\n  configuration: --enable-gpl --enable-version3 --enable-sdl2 --enable-fontconfig --enable-gnutls --enable-iconv --enable-libass --enable-libdav1d --enable-libbluray --enable-libfreetype --enable-libmp3lame --enable-libopencore-amrnb --enable-libopencore-amrwb --enable-libopenjpeg --enable-libopus --enable-libshine --enable-libsnappy --enable-libsoxr --enable-libtheora --enable-libtwolame --enable-libvpx --enable-libwavpack --enable-libwebp --enable-libx264 --enable-libx265 --enable-libxml2 --enable-libzimg --enable-lzma --enable-zlib --enable-gmp --enable-libvidstab --enable-libvorbis --enable-libvo-amrwbenc --enable-libmysofa --enable-libspeex --enable-libxvid --enable-libaom --enable-libmfx --enable-amf --enable-ffnvcodec --enable-cuvid --enable-d3d11va --enable-nvenc --enable-nvdec --enable-dxva2 --enable-avisynth --enable-libopenmpt\r\n  libavutil      56. 26.100 / 56. 26.100\r\n  libavcodec     58. 52.100 / 58. 52.100\r\n  libavformat    58. 27.103 / 58. 27.103\r\n  libavdevice    58.  7.100 / 58.  7.100\r\n  libavfilter     7. 50.100 /  7. 50.100\r\n  libswscale      5.  4.100 /  5.  4.100\r\n  libswresample   3.  4.100 /  3.  4.100\r\n  libpostproc    55.  4.100 / 55.  4.100\r\nTrailing options were found on the commandline.\r\nInput #0, mov,mp4,m4a,3gp,3g2,mj2, from 'F:\\video2xcache\\tmp78goorh6\\no_audio.mp4':\r\n  Metadata:\r\n    major_brand     : isom\r\n    minor_version   : 512\r\n    compatible_brands: isomiso2avc1mp41\r\n    encoder         : Lavf58.27.103\r\n  Duration: 00:00:00.04, start: 0.000000, bitrate: 18052 kb/s\r\n    Stream #0:0(und): Video: h264 (High 4:4:4 Predictive) (avc1 / 0x31637661), yuv444p, 3840x2160, 18026 kb/s, 23.98 fps, 23.98 tbr, 24k tbn, 47.95 tbc (default)\r\n    Metadata:\r\n      handler_name    : VideoHandler\r\nInput #1, mpeg, from 'E:\\[POPGO][FREEWIND][Macross_Do_you_remember_love][Full_HD-BDRIP][AVC_DTS].mpeg':\r\n  Duration: 00:06:38.89, start: 0.460233, bitrate: 25334 kb/s\r\n    Stream #1:0[0x1e0]: Video: mpeg2video (High), yuv420p(tv, unknown/bt709/unknown, progressive), 1920x1080 [SAR 1:1 DAR 16:9], 24858 kb/s, 23.98 fps, 23.98 tbr, 90k tbn, 47.95 tbc\r\n    Stream #1:1[0x1c0]: Audio: mp2, 44100 Hz, stereo, fltp, 384 kb/s\r\nF:\\temp\\[PANTSUSENSEI][Macross_Do_you_remember_love][BDRIP][4K][DENOISE][AVC_DTS].mp4: No such file or directory\r\n[!] ERROR: An exception has occurred\r\nTraceback (most recent call last):\r\n  File \"video2x.py\", line 318, in <module>\r\n    upscaler.run()\r\n  File \"C:\\Program Files\\video2x-master\\bin\\upscaler.py\", line 307, in run\r\n    fm.migrate_audio_tracks_subtitles(self.input_video, self.output_video, self.upscaled_frames)\r\n  File \"C:\\Program Files\\video2x-master\\bin\\ffmpeg.py\", line 126, in migrate_audio_tracks_subtitles\r\n    self._execute(execute=execute, phase='migrating_tracks')\r\n  File \"C:\\Program Files\\video2x-master\\bin\\ffmpeg.py\", line 147, in _execute\r\n    return subprocess.run(execute, shell=True, check=True).returncode\r\n  File \"C:\\Users\\Administrator\\AppData\\Local\\Programs\\Python\\Python37\\lib\\subprocess.py\", line 487, in run\r\n    output=stdout, stderr=stderr)\r\nsubprocess.CalledProcessError: Command '['C:\\\\Users\\\\Administrator\\\\AppData\\\\Local\\\\video2x\\\\ffmpeg-latest-win64-static\\\\bin\\\\ffmpeg.exe', '-i', 'F:\\\\video2xcache\\\\tmp78goorh6\\\\no_audio.mp4', '-i', 'E:\\\\[POPGO][FREEWIND][Macross_Do_you_remember_love][Full_HD-BDRIP][AVC_DTS].mpeg', 'F:\\\\temp\\\\[PANTSUSENSEI][Macross_Do_you_remember_love][BDRIP][4K][DENOISE][AVC_DTS].mp4', '-map', '-1:v?', '-c', 'copy', '-hwaccel', 'auto', '-y']' returned non-zero exit status 1.\r\n\r\nC:\\Program Files\\video2x-master\\bin>\r\n```","closed_by":{"login":"k4yt3x","id":21986859,"node_id":"MDQ6VXNlcjIxOTg2ODU5","avatar_url":"https://avatars.githubusercontent.com/u/21986859?v=4","gravatar_id":"","url":"https://api.github.com/users/k4yt3x","html_url":"https://github.com/k4yt3x","followers_url":"https://api.github.com/users/k4yt3x/followers","following_url":"https://api.github.com/users/k4yt3x/following{/other_user}","gists_url":"https://api.github.com/users/k4yt3x/gists{/gist_id}","starred_url":"https://api.github.com/users/k4yt3x/starred{/owner}{/repo}","subscriptions_url":"https://api.github.com/users/k4yt3x/subscriptions","organizations_url":"https://api.github.com/users/k4yt3x/orgs","repos_url":"https://api.github.com/users/k4yt3x/repos","events_url":"https://api.github.com/users/k4yt3x/events{/privacy}","received_events_url":"https://api.github.com/users/k4yt3x/received_events","type":"User","site_admin":false},"reactions":{"url":"https://api.github.com/repos/k4yt3x/video2x/issues/86/reactions","total_count":0,"+1":0,"-1":0,"laugh":0,"hooray":0,"confused":0,"heart":0,"rocket":0,"eyes":0},"timeline_url":"https://api.github.com/repos/k4yt3x/video2x/issues/86/timeline","performed_via_github_app":null,"state_reason":"completed"}